<svg width="640" height="480" viewBox="0 0 640 480" fill="none" xmlns="http://www.w3.org/2000/svg">
  <path
    d="M84 160
       H249
       C264 160 272 146 263 134
       C252 118 253 98 269 82
       C289 62 327 55 361 66
       C383 73 390 88 378 107
       C366 126 371 160 397 160
       H528
       V251
       C528 266 544 275 557 266
       C579 251 605 265 617 296
       C630 329 620 365 597 373
       C581 379 568 371 558 358
       C548 345 528 351 528 368
       V413
       H394
       C377 413 368 395 378 381
       C392 361 379 339 350 335
       C317 331 279 345 265 367
       C254 385 265 413 285 413
       H84
       V286
       C84 270 101 262 114 271
       C134 286 159 273 168 245
       C178 214 168 181 146 174
       C131 169 118 176 108 188
       C98 200 84 192 84 176
       V160Z"
    fill="#8D6AA0" />
</svg>
