<svg width="640" height="480" viewBox="0 0 640 480" fill="none" xmlns="http://www.w3.org/2000/svg">
  <path
    d="M84 160
       H249
       C264 160 272 146 263 134
       C252 118 253 98 269 82
       C289 62 327 55 361 66
       C383 73 390 88 378 107
       C366 126 371 160 397 160
       H528
       V226
       C528 242 544 250 557 240
       C579 224 606 240 619 270
       C633 304 621 343 597 352
       C581 358 568 349 558 336
       C548 323 528 329 528 346
       V413
       H394
       C377 413 367 397 376 383
       C389 363 374 344 348 340
       C317 334 281 348 268 370
       C257 389 268 413 289 413
       H84
       V346
       C84 330 101 322 114 333
       C134 350 160 336 169 307
       C179 275 169 239 146 231
       C131 225 118 234 108 247
       C98 260 84 252 84 236
       V160Z"
    fill="#8D6AA0" />
</svg>
